Coordinates
version=1
nRows=32
nColumns=18
inDegrees=yes

Units are S.I. units (second, meters, Newtons, ...)
If the header above contains a line with 'inDegrees', this indicates whether rotational values are in degrees (yes) or radians (no).

endheader
time	ground_thorax_rot_x	ground_thorax_rot_y	ground_thorax_rot_z	ground_thorax_tx	ground_thorax_ty	ground_thorax_tz	clav_prot	clav_elev	scapula_abduction	scapula_elevation	scapula_upward_rot	scapula_winging	plane_elv	shoulder_elv	axial_rot	elbow_flexion	pro_sup
      1.20000000	      2.70721100	     -5.81425182	     -7.36201282	     -0.00658859	      0.00606074	      0.00335178	    -28.35893920	      3.01319840	    -21.48216767	     -0.26776401	     18.40291523	      1.80237350	     -3.80885188	     12.18832935	     25.92289564	      0.00000000	     34.32000000
      1.21000000	      2.32942855	     -6.03094336	     -7.15551957	     -0.00678906	      0.00659985	      0.00307739	    -28.45774786	      3.16532635	    -21.54603281	     -0.22508770	     18.65621589	      1.68683790	     -3.61776566	     11.87505948	     25.74731699	      0.00000000	     34.32000000
      1.22000000	      2.44785356	     -6.17856784	     -7.14155341	     -0.00670837	      0.00672829	      0.00306661	    -28.84861870	      3.89676437	    -21.81852942	      0.02996731	     19.70421510	      1.19640079	     -2.15964989	     10.97356007	     24.89413990	      0.00000000	     34.32000000
      1.23000000	      2.50980264	     -5.95165634	     -7.37517118	     -0.00652982	      0.00641297	      0.00309113	    -29.45511145	      4.54526700	    -23.30029135	      0.53567344	     19.42494667	      1.06548039	      5.10901022	     11.86981586	     15.76578056	      0.00000000	     34.32000000
      1.24000000	      2.16361893	     -5.96148884	     -7.22806636	     -0.00639909	      0.00680405	      0.00273339	    -29.61507964	      4.70620441	    -23.47833390	      0.58247726	     19.66712224	      0.93689237	      5.23238151	     11.66922156	     15.67520708	      0.00000000	     34.32000000
      1.25000000	      2.45782903	     -5.70881226	     -7.25517972	     -0.00659835	      0.00669364	      0.00303038	    -30.43672106	      5.51178126	    -24.74094584	      0.94058851	     20.37047161	      0.43116656	      9.05560332	     11.57636840	     11.49787034	      0.00000000	     34.32000000
      1.26000000	      2.35011377	     -6.01392640	     -7.11426628	     -0.00684379	      0.00699700	      0.00317111	    -30.61920338	      5.88199035	    -24.71675097	      1.01914562	     21.10649489	      0.12097553	      9.17816070	     11.04896654	     11.22739574	      0.00000000	     34.32000000
      1.27000000	      2.36312379	     -6.33020456	     -6.97357235	     -0.00716168	      0.00718058	      0.00354798	    -30.71683081	      6.32433689	    -24.57988143	      1.15874007	     21.84521730	     -0.17351600	      9.16964010	     10.67007611	     10.82818792	      0.00000000	     34.32000000
      1.28000000	      2.39729987	     -6.50608061	     -6.85292686	     -0.00740593	      0.00733922	      0.00388000	    -30.84877063	      6.72619646	    -24.55616255	      1.29377269	     22.47181218	     -0.43753237	      9.02280119	     10.47710761	     10.33276403	      0.00000000	     34.32000000
      1.29000000	      2.09552311	     -6.66049851	     -6.76534079	     -0.00748432	      0.00766636	      0.00377645	    -30.94894531	      6.90705825	    -24.65775539	      1.36674817	     22.68939426	     -0.54784845	      9.02807124	     10.35823874	     10.19711731	      0.00000000	     34.32000000
      1.30000000	      2.20704581	     -6.94147763	     -6.83940296	     -0.00750004	      0.00754969	      0.00390729	    -31.28190280	      7.71474371	    -25.14496754	      1.77632028	     23.34715997	     -0.90948867	     12.67531072	     10.36881047	      4.56954851	      0.00000000	     34.32000000
      1.31000000	      1.84719329	     -7.15558988	     -6.69062828	     -0.00770888	      0.00797383	      0.00367726	    -31.36998858	      7.85336776	    -25.23779009	      1.82972875	     23.52032450	     -0.99878257	     12.69845542	     10.17449608	      4.52155643	      0.00000000	     34.32000000
      1.32000000	      1.73082132	     -7.39788969	     -6.61386655	     -0.00792941	      0.00815088	      0.00391624	    -31.48692230	      7.99668519	    -25.29777798	      1.85692294	     23.80978822	     -1.13292097	     12.67870592	     10.05586407	      4.46525284	      0.00000000	     34.32000000
      1.33000000	      2.08870948	     -7.69791281	     -6.60505207	     -0.00813088	      0.00797530	      0.00441443	    -31.67810081	      8.51709415	    -25.14273952	      1.98358801	     24.83598028	     -1.53927554	     12.45015734	      9.55859542	      4.18540790	      0.00000000	     34.32000000
      1.34000000	      2.02336498	     -7.88776748	     -6.61490455	     -0.00816702	      0.00800698	      0.00461664	    -31.75839717	      8.56908415	    -25.26006316	      2.00118495	     24.89454620	     -1.58557577	     12.41113350	      9.63805596	      4.17858835	      0.00000000	     34.32000000
      1.35000000	      1.90009354	     -8.01024347	     -6.60270805	     -0.00819309	      0.00811541	      0.00443146	    -31.82860843	      8.62052934	    -25.33852025	      2.01247495	     24.98262473	     -1.63833980	     12.39043886	      9.69878926	      4.17054954	      0.00000000	     34.32000000
      1.36000000	      1.89478477	     -8.01135428	     -6.46854419	     -0.00828913	      0.00830517	      0.00432662	    -32.21337071	      9.02677817	    -25.61461506	      2.09767836	     25.76407547	     -2.02616303	     12.33950649	      9.00450034	      3.72969573	      0.00000000	     34.32000000
      1.37000000	      1.59661899	     -8.11504819	     -6.37006989	     -0.00838734	      0.00855855	      0.00398489	    -32.34704259	      9.26401152	    -25.67490678	      2.17167714	     26.15118859	     -2.20185259	     12.44442153	      8.55546845	      3.51714661	      0.00000000	     34.32000000
      1.38000000	      1.60958804	     -8.22045787	     -6.26971947	     -0.00854255	      0.00875180	      0.00400671	    -32.63177054	      9.82301424	    -25.80014654	      2.36050914	     27.01597433	     -2.59008139	     12.75912693	      7.90892860	      2.88638674	      0.00000000	     34.32000000
      1.39000000	      1.32234713	     -8.41850424	     -6.20060373	     -0.00867368	      0.00902579	      0.00397332	    -32.72736688	      9.96161773	    -25.90228171	      2.41424955	     27.18955958	     -2.68277271	     12.76434475	      7.72651180	      2.80841589	      0.00000000	     34.32000000
      1.40000000	      1.46918330	     -8.56118349	     -6.22918649	     -0.00872309	      0.00894246	      0.00408149	    -33.06133780	     10.41243908	    -26.05407095	      2.52536398	     28.04229875	     -3.07934090	     12.81782514	      7.08384344	      2.38415364	      0.00000000	     34.32000000
      1.41000000	      1.36780481	     -8.70167387	     -6.22170723	     -0.00862870	      0.00898400	      0.00397254	    -33.14071412	     10.45281368	    -26.18564010	      2.54147338	     28.06917018	     -3.11861552	     12.82284611	      7.04962262	      2.35362174	      0.00000000	     34.32000000
      1.42000000	      1.29553236	     -8.76547822	     -6.27692727	     -0.00851963	      0.00898804	      0.00390275	    -33.17674602	     10.50729662	    -26.24755849	      2.56978697	     28.10487462	     -3.14501351	     12.81701559	      7.08578161	      2.35088170	      0.00000000	     34.32000000
      1.43000000	      1.17836365	     -8.80883634	     -6.32338768	     -0.00848456	      0.00912339	      0.00398549	    -33.22081209	     10.58157684	    -26.29834523	      2.60168705	     28.18712131	     -3.18909351	     12.80840945	      7.13959076	      2.34512413	      0.00000000	     34.32000000
      1.44000000	      1.47247194	     -8.43243022	     -6.24473649	     -0.00867843	      0.00905800	      0.00418465	    -33.81033903	     11.24705233	    -26.85473375	      2.81092340	     29.20437425	     -3.74415845	     12.55599573	      6.49835247	      1.83081211	      0.00000000	     34.32000000
      1.45000000	      1.35657023	     -8.45683405	     -6.25047633	     -0.00866482	      0.00908349	      0.00409909	    -33.85091414	     11.28252628	    -26.87893621	      2.81579773	     29.28495662	     -3.78520620	     12.55055679	      6.58807031	      1.82963038	      0.00000000	     34.32000000
      1.46000000	      1.30987596	     -8.48844756	     -6.24437953	     -0.00864965	      0.00901386	      0.00412367	    -33.89304828	     11.29560116	    -26.91492397	      2.81052005	     29.33660936	     -3.81777204	     12.54100407	      6.66368188	      1.82362516	      0.00000000	     34.32000000
      1.47000000	      1.47539009	     -8.05596252	     -6.14121104	     -0.00887024	      0.00917677	      0.00402300	    -34.26303305	     11.36971244	    -27.54376200	      2.82589715	     29.35075832	     -3.97546952	     12.26827992	      6.90575781	      1.22261782	      0.00000000	     34.32000000
      1.48000000	      1.45246377	     -8.10234154	     -6.15007765	     -0.00897439	      0.00919383	      0.00403037	    -34.27675937	     11.38375069	    -27.56889853	      2.83329793	     29.35719626	     -3.98362648	     12.26349866	      6.91383152	      1.21605773	      0.00000000	     34.32000000
      1.49000000	      1.38176508	     -8.18641405	     -6.09802176	     -0.00899942	      0.00927254	      0.00399366	    -34.29376536	     11.38815382	    -27.58864577	      2.83210995	     29.37040792	     -3.99472009	     12.26573484	      6.81364294	      1.18132573	      0.00000000	     34.32000000
      1.50000000	      1.31737576	     -8.17952913	     -6.07461985	     -0.00905537	      0.00929774	      0.00377121	    -34.28700741	     11.38557120	    -27.55589679	      2.82528776	     29.39702890	     -3.99980717	     12.28281009	      6.71586089	      1.15942576	      0.00000000	     34.32000000
      1.51000000	      1.23488315	     -8.24268625	     -6.06350680	     -0.00892152	      0.00926829	      0.00361521	    -34.30547810	     11.38899734	    -27.56947647	      2.82125509	     29.42053079	     -4.01433115	     12.30263879	      6.61617300	      1.14045894	      0.00000000	     34.32000000
